<svg width="16" height="16" viewBox="0 0 16 16" fill="none" xmlns="http://www.w3.org/2000/svg">
<circle cx="8" cy="8" r="7.5" fill="white" stroke="#212121"/>
<path d="M7.42 6.284L8.926 7.79C8.982 7.854 9.01 7.926 9.01 8.006C9.01 8.082 8.982 8.148 8.926 8.204L7.42 9.71C7.364 9.77 7.296 9.8 7.216 9.8C7.132 9.8 7.062 9.77 7.006 9.71L6.874 9.584C6.818 9.528 6.79 9.46 6.79 9.38C6.79 9.296 6.818 9.226 6.874 9.17L7.834 8.204C7.89 8.152 7.918 8.084 7.918 8C7.918 7.916 7.89 7.846 7.834 7.79L6.874 6.83C6.818 6.774 6.79 6.706 6.79 6.626C6.79 6.542 6.818 6.472 6.874 6.416L7.006 6.284C7.062 6.228 7.132 6.2 7.216 6.2C7.296 6.2 7.364 6.228 7.42 6.284Z" fill="#777777"/>
</svg>
