<svg width="32" height="32" viewBox="0 0 32 32" fill="none" xmlns="http://www.w3.org/2000/svg">
<path d="M4 2C4 3.10457 3.10457 4 2 4C0.89543 4 0 3.10457 0 2C0 0.89543 0.89543 0 2 0C3.10457 0 4 0.89543 4 2Z" fill="#A0A1A6"/>
<path d="M18 2C18 3.10457 17.1046 4 16 4C14.8954 4 14 3.10457 14 2C14 0.89543 14.8954 0 16 0C17.1046 0 18 0.89543 18 2Z" fill="#AEF238"/>
<path d="M32 2C32 3.10457 31.1046 4 30 4C28.8954 4 28 3.10457 28 2C28 0.89543 28.8954 0 30 0C31.1046 0 32 0.89543 32 2Z" fill="#A0A1A6"/>
<path d="M4 16C4 17.1046 3.10457 18 2 18C0.89543 18 0 17.1046 0 16C0 14.8954 0.89543 14 2 14C3.10457 14 4 14.8954 4 16Z" fill="#A0A1A6"/>
<path d="M18 16C18 17.1046 17.1046 18 16 18C14.8954 18 14 17.1046 14 16C14 14.8954 14.8954 14 16 14C17.1046 14 18 14.8954 18 16Z" fill="#AEF238"/>
<path d="M32 16C32 17.1046 31.1046 18 30 18C28.8954 18 28 17.1046 28 16C28 14.8954 28.8954 14 30 14C31.1046 14 32 14.8954 32 16Z" fill="#A0A1A6"/>
<path d="M4 30C4 31.1046 3.10457 32 2 32C0.89543 32 0 31.1046 0 30C0 28.8954 0.89543 28 2 28C3.10457 28 4 28.8954 4 30Z" fill="#A0A1A6"/>
<path d="M18 30C18 31.1046 17.1046 32 16 32C14.8954 32 14 31.1046 14 30C14 28.8954 14.8954 28 16 28C17.1046 28 18 28.8954 18 30Z" fill="#AEF238"/>
<path d="M32 30C32 31.1046 31.1046 32 30 32C28.8954 32 28 31.1046 28 30C28 28.8954 28.8954 28 30 28C31.1046 28 32 28.8954 32 30Z" fill="#A0A1A6"/>
</svg>
