<svg width="40" height="38" viewBox="0 0 40 38" fill="none" xmlns="http://www.w3.org/2000/svg">
<path d="M21.6371 1.58847C21.6371 1.16785 21.813 0.764464 22.126 0.467043C22.4391 0.169622 22.8637 0.00253269 23.3065 0.00253269C27.7325 0.00715031 31.9759 1.67953 35.1056 4.65274C38.2353 7.62595 39.9957 11.6572 40.0006 15.8619C40.0006 16.2825 39.8247 16.6859 39.5116 16.9833C39.1985 17.2808 38.7739 17.4479 38.3312 17.4479C37.8884 17.4479 37.4638 17.2808 37.1507 16.9833C36.8376 16.6859 36.6618 16.2825 36.6618 15.8619C36.6578 12.4981 35.2494 9.27322 32.7457 6.89467C30.242 4.51612 26.8473 3.17819 23.3065 3.17441C22.8637 3.17441 22.4391 3.00732 22.126 2.7099C21.813 2.41248 21.6371 2.00909 21.6371 1.58847ZM23.3065 9.51816C25.0775 9.51816 26.776 10.1865 28.0283 11.3762C29.2806 12.5659 29.9841 14.1795 29.9841 15.8619C29.9841 16.2825 30.16 16.6859 30.4731 16.9833C30.7862 17.2808 31.2108 17.4479 31.6535 17.4479C32.0963 17.4479 32.5209 17.2808 32.834 16.9833C33.1471 16.6859 33.3229 16.2825 33.3229 15.8619C33.3203 13.339 32.2641 10.9201 30.3863 9.13613C28.5084 7.35215 25.9622 6.34881 23.3065 6.34629C22.8637 6.34629 22.4391 6.51338 22.126 6.8108C21.813 7.10822 21.6371 7.51161 21.6371 7.93222C21.6371 8.35284 21.813 8.75623 22.126 9.05365C22.4391 9.35107 22.8637 9.51816 23.3065 9.51816ZM38.4864 26.5496C39.4539 27.4712 39.9971 28.7196 39.9971 30.0212C39.9971 31.3227 39.4539 32.5712 38.4864 33.4928L36.9673 35.1564C23.2948 47.5918 -9.97652 15.992 2.91132 2.96189L4.83114 1.37596C5.80235 0.48256 7.10476 -0.0116629 8.4566 0.000209042C9.80844 0.012081 11.101 0.529093 12.0547 1.43939C12.1064 1.48856 15.1998 5.30591 15.1998 5.30591C16.1177 6.22199 16.6287 7.43889 16.6265 8.70363C16.6243 9.96837 16.1092 11.1837 15.1882 12.0969L13.255 14.406C14.3248 16.8755 15.8978 19.1198 17.8834 21.01C19.8691 22.9002 22.2284 24.399 24.8257 25.4204L27.2713 23.5728C28.2328 22.6984 29.5118 22.2096 30.8427 22.2079C32.1736 22.2061 33.4541 22.6915 34.4181 23.5632C34.4181 23.5632 38.4347 26.5004 38.4864 26.5496ZM36.1893 28.8555C36.1893 28.8555 32.1944 25.9358 32.1427 25.8866C31.7987 25.5627 31.334 25.3809 30.8497 25.3809C30.3654 25.3809 29.9007 25.5627 29.5568 25.8866C29.5117 25.931 26.1445 28.4796 26.1445 28.4796C25.9176 28.6512 25.6475 28.7637 25.3609 28.806C25.0744 28.8482 24.7811 28.8189 24.5101 28.7207C21.1454 27.5306 18.0891 25.6674 15.5485 23.2573C13.0078 20.8472 11.042 17.9465 9.78428 14.7518C9.67276 14.4908 9.6364 14.2063 9.67894 13.9276C9.72149 13.6489 9.84139 13.3859 10.0263 13.1658C10.0263 13.1658 12.7091 9.9654 12.7542 9.92416C13.0952 9.59744 13.2865 9.15596 13.2865 8.69585C13.2865 8.23575 13.0952 7.79427 12.7542 7.46754C12.7024 7.41997 9.62902 3.62164 9.62902 3.62164C9.27995 3.32429 8.82437 3.16505 8.35568 3.17655C7.88698 3.18805 7.44067 3.36942 7.10821 3.6835L5.1884 5.26943C-4.23041 16.0284 24.6019 41.8999 34.5266 32.9901L36.0474 31.3248C36.4038 31.0112 36.6179 30.5782 36.6443 30.1174C36.6708 29.6566 36.5076 29.2041 36.1893 28.8555Z" fill="#212121"/>
</svg>
