<svg width="40" height="38" viewBox="0 0 40 38" fill="none" xmlns="http://www.w3.org/2000/svg">
<path d="M31.6667 0.666664H8.33333C6.12401 0.669311 4.00593 1.54813 2.4437 3.11036C0.88147 4.67259 0.00264643 6.79067 0 9L0 29C0.00264643 31.2093 0.88147 33.3274 2.4437 34.8896C4.00593 36.4519 6.12401 37.3307 8.33333 37.3333H31.6667C33.876 37.3307 35.9941 36.4519 37.5563 34.8896C39.1185 33.3274 39.9974 31.2093 40 29V9C39.9974 6.79067 39.1185 4.67259 37.5563 3.11036C35.9941 1.54813 33.876 0.669311 31.6667 0.666664ZM8.33333 4H31.6667C32.6646 4.00196 33.6392 4.30252 34.4649 4.863C35.2906 5.42349 35.9298 6.21824 36.3 7.145L23.5367 19.91C22.5974 20.8455 21.3257 21.3708 20 21.3708C18.6743 21.3708 17.4026 20.8455 16.4633 19.91L3.7 7.145C4.07025 6.21824 4.70936 5.42349 5.53508 4.863C6.3608 4.30252 7.33536 4.00196 8.33333 4ZM31.6667 34H8.33333C7.00725 34 5.73548 33.4732 4.7978 32.5355C3.86012 31.5979 3.33333 30.3261 3.33333 29V11.5L14.1067 22.2667C15.671 23.8271 17.7904 24.7034 20 24.7034C22.2096 24.7034 24.329 23.8271 25.8933 22.2667L36.6667 11.5V29C36.6667 30.3261 36.1399 31.5979 35.2022 32.5355C34.2645 33.4732 32.9927 34 31.6667 34Z" fill="black"/>
</svg>
